Coordinates
version=1
nRows=13
nColumns=36
inDegrees=yes

Units are S.I. units (second, meters, Newtons, ...)
If the header above contains a line with 'inDegrees', this indicates whether rotational values are in degrees (yes) or radians (no).

endheader
time	pelvis_tilt	pelvis_list	pelvis_rotation	pelvis_tx	pelvis_ty	pelvis_tz	hip_flexion_r	hip_adduction_r	hip_rotation_r	knee_angle_r	knee_angle_r_beta	ankle_angle_r	subtalar_angle_r	mtp_angle_r	hip_flexion_l	hip_adduction_l	hip_rotation_l	knee_angle_l	knee_angle_l_beta	ankle_angle_l	subtalar_angle_l	mtp_angle_l	lumbar_extension	lumbar_bending	lumbar_rotation	arm_flex_r	arm_add_r	arm_rot_r	elbow_flex_r	pro_sup_r	arm_flex_l	arm_add_l	arm_rot_l	elbow_flex_l	pro_sup_l
      8.21666670	      1.01533044	      0.07797111	      5.13709119	      0.39162206	      0.89357993	     -0.03453958	     -7.66273933	     -5.42376746	    -11.27413713	      3.26866301	      0.05704893	      6.57166759	     -8.37925022	     -7.49999987	     -4.44865000	     -9.34357091	     -4.03704908	      2.70377934	      0.04718985	      9.07692696	      8.67362283	     -7.49999987	     -1.05708265	      3.27081380	     -5.24848806	     26.07983917	      4.80185543	     64.97293179	    123.35569334	     84.06010562	     38.23384554	      7.66906281	     70.11717625	    124.62564308	     61.06227303
      8.23333330	      1.32120897	      0.07806419	      5.38899630	      0.39179089	      0.89146081	     -0.03487830	     -8.05419955	     -5.30840420	    -11.72131071	      3.28782149	      0.05738331	      6.30216754	     -8.66094705	     -7.49999987	     -4.73656084	     -9.40341976	     -3.80032845	      2.64409945	      0.04614824	      9.31860316	      8.97701642	     -7.49999987	     -1.13122811	      3.27076584	     -5.38989722	     25.79861717	      4.90888295	     64.94651184	    123.37565636	     83.88225248	     38.31638515	      7.63649419	     70.33961565	    124.66527030	     60.92942701
      8.25000000	      1.60354574	      0.07113103	      5.49226011	      0.39142554	      0.89119888	     -0.03513192	     -8.34676475	     -5.20498877	    -11.87293196	      3.27530911	      0.05716493	      6.29066126	     -8.53459513	     -7.49999987	     -5.05029778	     -9.45354167	     -3.80544641	      2.57404385	      0.04492554	      9.39396266	      9.34376340	     -7.49999987	     -1.22625127	      3.25813751	     -5.47184692	     25.57763885	      5.08973535	     64.79226929	    123.10295479	     84.41291098	     38.46774366	      7.65208497	     70.56655403	    124.65187192	     60.57189834
      8.26666670	      1.84191372	      0.05742821	      5.65170655	      0.39155233	      0.89095185	     -0.03511554	     -8.62678887	     -5.11699133	    -12.21638544	      3.23919284	      0.05653458	      6.22648661	     -8.31046727	     -7.49999987	     -5.23977437	     -9.49601130	     -3.70812005	      2.57962171	      0.04502289	      9.39842299	      9.56378090	     -7.49999987	     -1.37571322	      3.28021878	     -5.37437191	     25.47953341	      5.12730512	     64.31709046	    123.02698263	     87.90429939	     38.60430545	      7.75701523	     70.85724990	    124.83965889	     59.42414773
      8.28333330	      2.06226049	      0.12472845	      5.73674282	      0.39109362	      0.89070099	     -0.03522487	     -8.79669764	     -5.19310334	    -12.40385710	      3.50751432	      0.06121767	      6.46734351	     -8.01820493	     -7.49999987	     -5.45526616	     -9.48021455	     -3.53086551	      2.58640762	      0.04514133	      9.14357167	      9.29264522	     -7.49999987	     -1.50870211	      3.19243331	     -5.31392816	     25.81266488	      5.13910028	     64.23742944	    123.00755204	     86.37854284	     38.78920072	      7.81400588	     70.97656043	    124.93045361	     59.54023882
      8.30000000	      2.13048836	      0.14518275	      5.74019198	      0.39639448	      0.89029474	     -0.03273069	     -8.94746488	     -5.14260922	    -12.41963954	      3.53635419	      0.06172102	      6.47769534	     -8.01242340	     -7.49999987	     -5.55744294	     -9.53965602	     -3.56338350	      2.63881208	      0.04605596	      9.06951916	      9.29480570	     -7.49999987	     -1.34126345	      3.07742753	     -5.26582358	     25.80898744	      5.20512382	     64.24914100	    123.01245238	     86.38914003	     38.76676132	      7.79950605	     71.00466738	    124.96917598	     59.54183746
      8.31666670	      2.37415589	      0.22819190	      5.65845066	      0.39589888	      0.89261854	     -0.03240237	     -9.36044890	     -5.18031410	    -12.61732194	      3.36697740	      0.05876484	      7.00899471	     -7.27739081	     -7.49999987	     -6.01635402	     -9.54664826	     -3.87379719	      2.46527506	      0.04302717	      8.90162358	      9.43986225	     -7.49999987	     -1.52015725	      2.99148400	     -5.09985629	     25.62069138	      5.35147636	     64.01654967	    122.79864009	     87.78528600	     38.67697899	      7.65556861	     71.35418955	    125.21776938	     59.22108351
      8.33333330	      2.35890284	      0.25480344	      5.65521145	      0.39143776	      0.89249755	     -0.03515410	     -9.35034904	     -5.27514794	    -12.64648536	      3.29941354	      0.05758563	      7.10234366	     -7.34477921	     -7.49999987	     -6.03290327	     -9.50078797	     -3.86683993	      2.44332664	      0.04264409	      8.98739755	      9.42166982	     -7.49999987	     -1.48105074	      3.12621008	     -5.10055691	     25.74425960	      5.31764185	     63.97666402	    122.84323184	     87.79103008	     38.73178829	      7.64296802	     71.31750855	    125.18140163	     59.21945847
      8.35000000	      2.52496152	      0.24085689	      5.76636258	      0.39626748	      0.89243758	     -0.03305431	     -9.68592082	     -5.19093882	    -12.65418790	      3.13587793	      0.05473139	      7.04415975	     -7.40066338	     -7.49999987	     -6.26464019	     -9.58155317	     -3.75380624	      2.36055058	      0.04119938	      9.20302239	      9.49951961	     -7.49999987	     -1.46529158	      3.12887494	     -5.20225314	     26.03726200	      5.20176769	     63.75240125	    123.00873992	     87.85164212	     38.83340782	      7.55660279	     70.84651436	    124.72485028	     59.19355746
      8.36666670	      2.50291179	      0.21310888	      5.61487587	      0.39649280	      0.89171563	     -0.03270752	     -9.75906893	     -5.18805051	    -12.71011589	      3.01561520	      0.05263241	      7.07120300	     -7.17500238	     -7.49999987	     -6.38899873	     -9.62271779	     -3.92911758	      2.22559866	      0.03884402	      9.50895496	      9.84196260	     -7.49999987	     -1.24596806	      3.16944908	     -5.14299701	     26.10450070	      5.13042734	     63.56898731	    123.08175727	     88.49362783	     38.84935919	      7.50809242	     70.42983538	    124.39652275	     59.22677830
      8.38333330	      2.41054488	      0.18730773	      5.50371445	      0.39093864	      0.89141984	     -0.03519932	     -9.62661731	     -5.24357242	    -12.71372351	      2.94824125	      0.05145652	      7.13013647	     -7.14877189	     -7.49999987	     -6.33414580	     -9.57268549	     -3.76578359	      2.04085730	      0.03561968	      9.80408216	      9.89396685	     -7.49999987	     -1.16444965	      3.31673195	     -5.09238362	     26.43509474	      5.04115034	     63.44829973	    123.04288259	     88.49946616	     39.11832437	      7.44924683	     70.16217703	    124.19781489	     59.21347031
      8.40000000	      2.34157699	      0.23492961	      5.52067548	      0.39123569	      0.89086198	     -0.03501409	     -9.56958186	     -5.32411775	    -12.77853730	      2.87613054	      0.05019795	      7.40280071	     -6.90331114	     -7.49999987	     -6.24322305	     -9.49155285	     -3.59866840	      2.05858651	      0.03592911	     10.00461873	      9.86165383	     -7.49999987	     -1.10204249	      3.30504926	     -5.16500799	     26.68503495	      4.93149211	     63.28623206	    122.88994547	     87.79188506	     39.14814954	      7.47326780	     69.59853204	    123.60056906	     59.26441413
      8.41666670	      2.22364706	      0.22529380	      5.50378185	      0.38634259	      0.88785000	     -0.03151778	     -9.28183152	     -5.28840499	    -12.49077999	      2.86604343	      0.05002189	      7.82282340	     -6.92236261	     -7.49999987	     -5.98123971	     -9.54743130	     -3.53888229	      2.19627372	      0.03833221	     10.26754019	      9.79370299	     -7.49999987	     -1.20985877	      3.29187971	     -5.06326888	     27.12428117	      4.91824115	     63.09228555	    122.86878527	     87.84259336	     39.56529577	      7.43936118	     69.32898560	    123.46365516	     59.25095359
